<svg xmlns="http://www.w3.org/2000/svg" width="157.85" height="157.85" viewBox="0 0 157.85 157.85">
    <defs>
        <style>
            .cls-1 {
                fill: #F3514C;
            }

        </style>
    </defs>
    <g id="objects">
        <g>
            <path class="cls-1" d="M112.92,157.85h-68A45,45,0,0,1,0,112.92v-68A45,45,0,0,1,44.93,0h68a45,45,0,0,1,44.93,44.93v68A45,45,0,0,1,112.92,157.85Zm-68-144.32a31.43,31.43,0,0,0-31.4,31.4v68a31.43,31.43,0,0,0,31.4,31.4h68a31.44,31.44,0,0,0,31.4-31.4v-68a31.43,31.43,0,0,0-31.4-31.4Z" />
            <path class="cls-1" d="M78.92,119.34a40.42,40.42,0,1,1,40.42-40.42A40.46,40.46,0,0,1,78.92,119.34Zm0-67.3a26.89,26.89,0,1,0,26.89,26.88A26.91,26.91,0,0,0,78.92,52Z" />
            <path class="cls-1" d="M130.79,36.2a9.72,9.72,0,1,1-9.72-9.72A9.72,9.72,0,0,1,130.79,36.2Z" />
        </g>
    </g>
</svg>
