<?xml version="1.0" standalone="no"?>
<!DOCTYPE svg PUBLIC "-//W3C//DTD SVG 20010904//EN"
 "http://www.w3.org/TR/2001/REC-SVG-20010904/DTD/svg10.dtd">
<svg version="1.0" xmlns="http://www.w3.org/2000/svg"
 width="700.000000pt" height="700.000000pt" viewBox="0 0 700.000000 700.000000"
 preserveAspectRatio="xMidYMid meet">
<metadata>
Created by potrace 1.11, written by Peter Selinger 2001-2013
</metadata>
<g transform="translate(0.000000,700.000000) scale(0.100000,-0.100000)"
fill="#000000" stroke="none">
<path d="M3418 6939 c-8 -5 -11 -560 -10 -1990 0 -1091 1 -1989 1 -1995 1 -17
3490 -17 3492 0 1 6 2 16 3 21 1 6 5 39 10 75 5 36 10 73 12 83 2 11 6 69 9
130 4 62 8 122 10 135 9 56 116 52 -1475 52 l-1468 0 0 1726 c0 949 -2 1727
-3 1729 -2 2 -29 6 -59 10 -30 4 -57 8 -60 10 -19 12 -445 24 -462 14z"/>
<path d="M2600 6825 c-353 -91 -767 -284 -1065 -496 -375 -266 -648 -545 -901
-919 -52 -77 -94 -142 -94 -145 0 -3 -12 -24 -26 -47 -47 -74 -164 -317 -213
-441 -83 -209 -163 -483 -184 -627 -3 -19 -10 -59 -16 -89 -6 -29 -14 -81 -17
-115 -3 -33 -8 -64 -9 -67 -6 -9 -19 -278 -19 -379 1 -132 12 -323 24 -417 6
-43 13 -96 16 -118 11 -85 57 -288 98 -435 42 -152 157 -445 221 -565 12 -22
43 -80 70 -130 167 -312 428 -640 717 -900 434 -392 1030 -696 1578 -804 30
-6 66 -14 80 -16 80 -17 321 -47 420 -52 194 -11 482 -5 592 12 13 2 50 6 83
10 32 4 66 8 75 10 8 1 66 12 127 24 823 157 1571 623 2089 1301 94 124 232
337 282 437 11 21 38 76 62 123 59 117 140 309 132 313 -4 2 -909 4 -2010 3
-1102 -1 -2008 2 -2013 5 -5 3 -10 940 -11 2276 l-3 2270 -85 -22z"/>
<path d="M4722 5408 l3 -1313 1083 0 1084 0 -6 35 c-40 255 -160 618 -294 888
-115 231 -280 490 -408 642 -213 252 -376 412 -579 566 -94 72 -253 184 -261
184 -3 0 -25 14 -49 30 -24 17 -47 30 -51 30 -4 0 -15 6 -23 14 -36 31 -398
206 -479 230 l-22 7 2 -1313z"/>
</g>
</svg>
